# xmcd
#
# Track frame offsets: 
#        150
#        17616
#        32743
#        49017
#        67353
#        79500
#        93126
#        108507
#        124545
#        138319
#        154408
#        169433
#
# Disc length: 2475 seconds
#
# Revision: 0
# Processed by: cddbd v1.5.2PL0 Copyright (c) Steve Scherf et al.
# Submitted via: ExactAudioCopy v0.95a5
#
DISCID=9c09a90c
DTITLE=江蕙 - 懷念經典1-1
DYEAR=1900
DGENRE=
TTITLE0=相思雨
TTITLE1=黃昏的故鄉
TTITLE2=飄浪之女
TTITLE3=南都夜曲
TTITLE4=孝女的願望
TTITLE5=鑼聲若響
TTITLE6=嫁不對人
TTITLE7=何時再相會
TTITLE8=春風歌聲
TTITLE9=不平凡的愛
TTITLE10=看破的愛
TTITLE11=夜夜為你來失眠
EXTD=
EXTT0=
EXTT1=
EXTT2=
EXTT3=
EXTT4=
EXTT5=
EXTT6=
EXTT7=
EXTT8=
EXTT9=
EXTT10=
EXTT11=
PLAYORDER=
